<?xml version="1.0" encoding="UTF-8"?>
<!DOCTYPE svg PUBLIC "-//W3C//DTD SVG 1.1//EN" "http://www.w3.org/Graphics/SVG/1.1/DTD/svg11.dtd">
<svg xmlns="http://www.w3.org/2000/svg" version="1.1" width="100px" height="100px" style="shape-rendering:geometricPrecision; text-rendering:geometricPrecision; image-rendering:optimizeQuality; fill-rule:evenodd; clip-rule:evenodd" xmlns:xlink="http://www.w3.org/1999/xlink">
<g><path style="opacity:0.776" fill="#2E86C1 " d="M 88.5,-0.5 C 91.1667,-0.5 93.8333,-0.5 96.5,-0.5C 97.1667,0.833333 98.1667,1.83333 99.5,2.5C 99.5,4.83333 99.5,7.16667 99.5,9.5C 95.4678,19.2534 91.8011,29.2534 88.5,39.5C 90.1033,42.2796 91.9366,44.9462 94,47.5C 95.8422,51.8148 95.8422,56.1482 94,60.5C 89.6979,75.7953 81.8646,88.7953 70.5,99.5C 67.1667,99.5 63.8333,99.5 60.5,99.5C 41.1778,95.7518 25.0111,86.4185 12,71.5C 11.5065,69.8659 11.3398,68.1992 11.5,66.5C 30.8665,66.7455 44.3665,58.0788 52,40.5C 55.9464,32.8594 61.9464,30.5261 70,33.5C 76.4332,22.2995 82.5998,10.9662 88.5,-0.5 Z M 91.5,4.5 C 92.5,4.5 93.5,4.5 94.5,4.5C 91.1049,16.017 87.1049,27.3504 82.5,38.5C 80.0038,37.4196 77.6705,36.0862 75.5,34.5C 80.8459,24.4731 86.1793,14.4731 91.5,4.5 Z M 61.5,37.5 C 70.3617,38.5884 78.6951,41.4217 86.5,46C 89.8906,49.2468 90.5573,52.7468 88.5,56.5C 85.5221,56.0068 83.1888,54.5068 81.5,52C 78.1265,52.821 75.4598,51.6543 73.5,48.5C 68.3286,47.5785 63.6619,45.5785 59.5,42.5C 59.1667,42 58.8333,41.5 58.5,41C 59.5442,39.8261 60.5442,38.6594 61.5,37.5 Z M 55.5,46.5 C 61.4307,49.7579 67.4307,52.9246 73.5,56C 75.5,56.3333 77.5,56.6667 79.5,57C 81.3766,59.1058 83.71,60.4391 86.5,61C 87.9295,62.8803 87.5962,64.3803 85.5,65.5C 83.1002,64.9817 81.1002,63.815 79.5,62C 75.3547,61.9274 72.0214,60.2607 69.5,57C 65.1243,57.3855 61.791,55.7188 59.5,52C 54.0502,52.4356 52.7168,50.6022 55.5,46.5 Z M 49.5,54.5 C 61.3856,59.7197 73.0523,65.3864 84.5,71.5C 80.914,80.2511 75.5807,87.7511 68.5,94C 64.4489,94.5177 60.4489,94.1843 56.5,93C 61.774,88.5647 66.1073,83.3981 69.5,77.5C 68.3073,75.6163 66.6406,75.1163 64.5,76C 60.9329,82.5678 55.7663,87.4012 49,90.5C 44.6573,89.0789 40.4906,87.2456 36.5,85C 42.2304,81.9376 47.3971,78.1043 52,73.5C 52.6114,69.9124 51.1114,68.7458 47.5,70C 43.2914,75.2673 37.9581,78.7673 31.5,80.5C 26.5032,78.4978 22.8365,75.1644 20.5,70.5C 32.753,69.5465 42.4196,64.2131 49.5,54.5 Z"/></g>
<g><path style="opacity:0.778" fill="#2E86C1 " d="M -0.5,27.5 C -0.5,24.8333 -0.5,22.1667 -0.5,19.5C 2.55598,15.7593 6.55598,14.5927 11.5,16C 14.516,17.5286 15.8494,20.0286 15.5,23.5C 14.7363,30.731 10.7363,33.231 3.5,31C 1.64977,30.3103 0.316435,29.1436 -0.5,27.5 Z M 5.5,20.5 C 10.1585,20.0146 11.4919,21.848 9.5,26C 4.72816,26.8104 3.39483,24.9771 5.5,20.5 Z"/></g>
<g><path style="opacity:0.828" fill="#2E86C1 " d="M 22.5,21.5 C 29.1584,20.3445 31.1584,22.8445 28.5,29C 21.7496,30.4689 19.7496,27.9689 22.5,21.5 Z"/></g>
<g><path style="opacity:0.757" fill="#2E86C1 " d="M 17.5,35.5 C 29.9901,33.8227 35.1568,39.156 33,51.5C 32.2155,53.286 31.0488,54.786 29.5,56C 16.0744,60.2377 10.2411,55.4043 12,41.5C 13.3597,38.9774 15.193,36.9774 17.5,35.5 Z M 19.5,40.5 C 28.8176,40.6546 30.8176,44.488 25.5,52C 16.0959,52.141 14.0959,48.3076 19.5,40.5 Z"/></g>
</svg>
