<?xml version="1.0" encoding="UTF-8"?>
<!DOCTYPE svg PUBLIC "-//W3C//DTD SVG 1.1//EN" "http://www.w3.org/Graphics/SVG/1.1/DTD/svg11.dtd">
<svg xmlns="http://www.w3.org/2000/svg" version="1.1" width="100px" height="100px" style="shape-rendering:geometricPrecision; text-rendering:geometricPrecision; image-rendering:optimizeQuality; fill-rule:evenodd; clip-rule:evenodd" xmlns:xlink="http://www.w3.org/1999/xlink">
<g><path style="opacity:1" fill="#000000" d="M 11.5,3.5 C 36.8333,3.5 62.1667,3.5 87.5,3.5C 87.5,34.1667 87.5,64.8333 87.5,95.5C 62.1667,95.5 36.8333,95.5 11.5,95.5C 11.5,64.8333 11.5,34.1667 11.5,3.5 Z M 15.5,7.5 C 38.1667,7.5 60.8333,7.5 83.5,7.5C 83.5,35.5 83.5,63.5 83.5,91.5C 60.8333,91.5 38.1667,91.5 15.5,91.5C 15.5,63.5 15.5,35.5 15.5,7.5 Z M 29.5,39.5 C 30.8333,39.5 32.1667,39.5 33.5,39.5C 33.5,42.1667 33.5,44.8333 33.5,47.5C 32.1667,47.5 30.8333,47.5 29.5,47.5C 29.5,44.8333 29.5,42.1667 29.5,39.5 Z M 37.5,39.5 C 44.8333,39.5 52.1667,39.5 59.5,39.5C 59.5,42.1667 59.5,44.8333 59.5,47.5C 52.1667,47.5 44.8333,47.5 37.5,47.5C 37.5,44.8333 37.5,42.1667 37.5,39.5 Z M 63.5,39.5 C 65.5,39.5 67.5,39.5 69.5,39.5C 69.5,42.1667 69.5,44.8333 69.5,47.5C 67.5,47.5 65.5,47.5 63.5,47.5C 63.5,44.8333 63.5,42.1667 63.5,39.5 Z M 29.5,51.5 C 30.8333,51.5 32.1667,51.5 33.5,51.5C 33.5,54.1667 33.5,56.8333 33.5,59.5C 32.1667,59.5 30.8333,59.5 29.5,59.5C 29.5,56.8333 29.5,54.1667 29.5,51.5 Z M 37.5,51.5 C 44.8333,51.5 52.1667,51.5 59.5,51.5C 59.5,54.1667 59.5,56.8333 59.5,59.5C 52.1667,59.5 44.8333,59.5 37.5,59.5C 37.5,56.8333 37.5,54.1667 37.5,51.5 Z M 63.5,51.5 C 65.5,51.5 67.5,51.5 69.5,51.5C 69.5,54.1667 69.5,56.8333 69.5,59.5C 67.5,59.5 65.5,59.5 63.5,59.5C 63.5,56.8333 63.5,54.1667 63.5,51.5 Z M 29.5,63.5 C 30.8333,63.5 32.1667,63.5 33.5,63.5C 33.5,65.5 33.5,67.5 33.5,69.5C 32.1667,69.5 30.8333,69.5 29.5,69.5C 29.5,67.5 29.5,65.5 29.5,63.5 Z M 37.5,63.5 C 44.8333,63.5 52.1667,63.5 59.5,63.5C 59.5,65.5 59.5,67.5 59.5,69.5C 52.1667,69.5 44.8333,69.5 37.5,69.5C 37.5,67.5 37.5,65.5 37.5,63.5 Z M 63.5,63.5 C 65.5,63.5 67.5,63.5 69.5,63.5C 69.5,65.5 69.5,67.5 69.5,69.5C 67.5,69.5 65.5,69.5 63.5,69.5C 63.5,67.5 63.5,65.5 63.5,63.5 Z"/></g>
<g><path style="opacity:1" fill="#000000" d="M 25.5,23.5 C 41.5,23.5 57.5,23.5 73.5,23.5C 73.5,24.8333 73.5,26.1667 73.5,27.5C 57.5,27.5 41.5,27.5 25.5,27.5C 25.5,26.1667 25.5,24.8333 25.5,23.5 Z"/></g>
<g><path style="opacity:0.996" fill="#000000" d="M 25.5,35.5 C 41.5,35.5 57.5,35.5 73.5,35.5C 73.5,48.1667 73.5,60.8333 73.5,73.5C 57.5,73.5 41.5,73.5 25.5,73.5C 25.5,60.8333 25.5,48.1667 25.5,35.5 Z M 29.5,39.5 C 29.5,42.1667 29.5,44.8333 29.5,47.5C 30.8333,47.5 32.1667,47.5 33.5,47.5C 33.5,44.8333 33.5,42.1667 33.5,39.5C 32.1667,39.5 30.8333,39.5 29.5,39.5 Z M 37.5,39.5 C 37.5,42.1667 37.5,44.8333 37.5,47.5C 44.8333,47.5 52.1667,47.5 59.5,47.5C 59.5,44.8333 59.5,42.1667 59.5,39.5C 52.1667,39.5 44.8333,39.5 37.5,39.5 Z M 63.5,39.5 C 63.5,42.1667 63.5,44.8333 63.5,47.5C 65.5,47.5 67.5,47.5 69.5,47.5C 69.5,44.8333 69.5,42.1667 69.5,39.5C 67.5,39.5 65.5,39.5 63.5,39.5 Z M 29.5,51.5 C 29.5,54.1667 29.5,56.8333 29.5,59.5C 30.8333,59.5 32.1667,59.5 33.5,59.5C 33.5,56.8333 33.5,54.1667 33.5,51.5C 32.1667,51.5 30.8333,51.5 29.5,51.5 Z M 37.5,51.5 C 37.5,54.1667 37.5,56.8333 37.5,59.5C 44.8333,59.5 52.1667,59.5 59.5,59.5C 59.5,56.8333 59.5,54.1667 59.5,51.5C 52.1667,51.5 44.8333,51.5 37.5,51.5 Z M 63.5,51.5 C 63.5,54.1667 63.5,56.8333 63.5,59.5C 65.5,59.5 67.5,59.5 69.5,59.5C 69.5,56.8333 69.5,54.1667 69.5,51.5C 67.5,51.5 65.5,51.5 63.5,51.5 Z M 29.5,63.5 C 29.5,65.5 29.5,67.5 29.5,69.5C 30.8333,69.5 32.1667,69.5 33.5,69.5C 33.5,67.5 33.5,65.5 33.5,63.5C 32.1667,63.5 30.8333,63.5 29.5,63.5 Z M 37.5,63.5 C 37.5,65.5 37.5,67.5 37.5,69.5C 44.8333,69.5 52.1667,69.5 59.5,69.5C 59.5,67.5 59.5,65.5 59.5,63.5C 52.1667,63.5 44.8333,63.5 37.5,63.5 Z M 63.5,63.5 C 63.5,65.5 63.5,67.5 63.5,69.5C 65.5,69.5 67.5,69.5 69.5,69.5C 69.5,67.5 69.5,65.5 69.5,63.5C 67.5,63.5 65.5,63.5 63.5,63.5 Z"/></g>
<g><path style="opacity:1" fill="#000000" d="M 49.5,79.5 C 57.5,79.5 65.5,79.5 73.5,79.5C 73.5,80.8333 73.5,82.1667 73.5,83.5C 65.5,83.5 57.5,83.5 49.5,83.5C 49.5,82.1667 49.5,80.8333 49.5,79.5 Z"/></g>
</svg>
