<?xml version="1.0" encoding="UTF-8"?>
<!DOCTYPE svg PUBLIC "-//W3C//DTD SVG 1.1//EN" "http://www.w3.org/Graphics/SVG/1.1/DTD/svg11.dtd">
<svg xmlns="http://www.w3.org/2000/svg" version="1.1" width="100px" height="100px" style="shape-rendering:geometricPrecision; text-rendering:geometricPrecision; image-rendering:optimizeQuality; fill-rule:evenodd; clip-rule:evenodd" xmlns:xlink="http://www.w3.org/1999/xlink">
<g><path style="opacity:0.982" fill="#FFBF00" d="M 9.5,7.5 C 36.1687,7.33336 62.8354,7.50003 89.5,8C 90,8.5 90.5,9 91,9.5C 91.6667,36.1667 91.6667,62.8333 91,89.5C 90.5,90 90,90.5 89.5,91C 62.8333,91.6667 36.1667,91.6667 9.5,91C 9,90.5 8.5,90 8,89.5C 7.33333,62.8333 7.33333,36.1667 8,9.5C 8.71719,8.9558 9.21719,8.28913 9.5,7.5 Z M 13.5,11.5 C 37.5023,11.3334 61.5023,11.5 85.5,12C 87.2785,14.1354 87.9452,16.6354 87.5,19.5C 62.1667,19.5 36.8333,19.5 11.5,19.5C 11.1072,16.4867 11.7739,13.8201 13.5,11.5 Z M 11.5,23.5 C 36.8333,23.5 62.1667,23.5 87.5,23.5C 87.6666,44.1694 87.5,64.836 87,85.5C 86.5,86 86,86.5 85.5,87C 61.5,87.6667 37.5,87.6667 13.5,87C 13,86.5 12.5,86 12,85.5C 11.5,64.836 11.3334,44.1694 11.5,23.5 Z"/></g>
<g><path style="opacity:0.766" fill="#FFBF00" d="M 13.5,13.5 C 14.8333,13.5 16.1667,13.5 17.5,13.5C 17.5,14.8333 17.5,16.1667 17.5,17.5C 16.1667,17.5 14.8333,17.5 13.5,17.5C 13.5,16.1667 13.5,14.8333 13.5,13.5 Z"/></g>
<g><path style="opacity:0.766" fill="#FFBF00" d="M 19.5,13.5 C 20.8333,13.5 22.1667,13.5 23.5,13.5C 23.5,14.8333 23.5,16.1667 23.5,17.5C 22.1667,17.5 20.8333,17.5 19.5,17.5C 19.5,16.1667 19.5,14.8333 19.5,13.5 Z"/></g>
<g><path style="opacity:0.766" fill="#FFBF00" d="M 25.5,13.5 C 26.8333,13.5 28.1667,13.5 29.5,13.5C 29.5,14.8333 29.5,16.1667 29.5,17.5C 28.1667,17.5 26.8333,17.5 25.5,17.5C 25.5,16.1667 25.5,14.8333 25.5,13.5 Z"/></g>
<g><path style="opacity:0.853" fill="#FFBF00" d="M 60.5,30.5 C 63.0974,30.6432 65.4308,31.4766 67.5,33C 65,35.5 62.5,38 60,40.5C 59.8333,43.6667 61.3333,45.1667 64.5,45C 73.4982,34.7703 75.9982,36.6036 72,50.5C 68.1969,54.8288 63.3636,56.6622 57.5,56C 50.1667,63.3333 42.8333,70.6667 35.5,78C 26.6667,81.1667 23.8333,78.3333 27,69.5C 32.5,64 38,58.5 43.5,53C 38.5284,47.6862 33.3617,42.8529 28,38.5C 26.9202,35.7629 27.7536,34.0963 30.5,33.5C 34.49,34.3256 36.99,36.659 38,40.5C 41,43.5 44,46.5 47,49.5C 47.6667,48.8333 48.3333,48.1667 49,47.5C 48.0066,38.3596 51.8399,32.693 60.5,30.5 Z"/></g>
<g><path style="opacity:0.85" fill="#FFBF00" d="M 58.5,59.5 C 63.7405,63.233 68.5738,67.5663 73,72.5C 74.8333,78.6667 72.6667,80.8333 66.5,79C 62.3333,74.8333 58.1667,70.6667 54,66.5C 53.3333,65.8333 53.3333,65.1667 54,64.5C 55.7073,62.9625 57.2073,61.2959 58.5,59.5 Z"/></g>
</svg>
