<?xml version="1.0" encoding="UTF-8"?>
<!DOCTYPE svg PUBLIC "-//W3C//DTD SVG 1.1//EN" "http://www.w3.org/Graphics/SVG/1.1/DTD/svg11.dtd">
<svg xmlns="http://www.w3.org/2000/svg" version="1.1" width="50px" height="50px" style="shape-rendering:geometricPrecision; text-rendering:geometricPrecision; image-rendering:optimizeQuality; fill-rule:evenodd; clip-rule:evenodd" xmlns:xlink="http://www.w3.org/1999/xlink">
<g><path style="opacity:0.667" fill="#FF7F50" d="M 21.5,5.5 C 28.1584,4.34448 30.1584,6.84448 27.5,13C 20.7496,14.4689 18.7496,11.9689 21.5,5.5 Z M 23.5,8.5 C 25.337,8.63945 25.6704,9.30612 24.5,10.5C 23.7025,10.0431 23.3691,9.37644 23.5,8.5 Z"/></g>
<g><path style="opacity:0.667" fill="#FF7F50" d="M 4.5,8.5 C 11.1584,7.34448 13.1584,9.84448 10.5,16C 3.74962,17.4689 1.74962,14.9689 4.5,8.5 Z M 6.5,11.5 C 8.33702,11.6395 8.67036,12.3061 7.5,13.5C 6.70245,13.0431 6.36912,12.3764 6.5,11.5 Z"/></g>
<g><path style="opacity:0.667" fill="#FF7F50" d="M 38.5,8.5 C 45.1584,7.34448 47.1584,9.84448 44.5,16C 37.7496,17.4689 35.7496,14.9689 38.5,8.5 Z M 40.5,11.5 C 42.337,11.6395 42.6704,12.3061 41.5,13.5C 40.7025,13.0431 40.3691,12.3764 40.5,11.5 Z"/></g>
<g><path style="opacity:0.827" fill="#FF7F50" d="M 19.5,14.5 C 28.8118,11.8243 32.8118,15.1577 31.5,24.5C 32.9778,24.238 34.3112,24.5713 35.5,25.5C 28.1667,26.8333 20.8333,26.8333 13.5,25.5C 14.6888,24.5713 16.0222,24.238 17.5,24.5C 17.0339,20.838 17.7006,17.5046 19.5,14.5 Z M 23.5,16.5 C 27.8991,17.2776 29.8991,19.9443 29.5,24.5C 26.1667,24.5 22.8333,24.5 19.5,24.5C 19.2776,20.9441 20.6109,18.2774 23.5,16.5 Z"/></g>
<g><path style="opacity:0.809" fill="#FF7F50" d="M 4.5,17.5 C 6.7925,17.2436 8.95917,17.5769 11,18.5C 11.4983,21.8168 11.665,25.1501 11.5,28.5C 13.7925,28.2436 15.9592,28.5769 18,29.5C 18.4992,34.1548 18.6658,38.8215 18.5,43.5C 16.5,43.5 14.5,43.5 12.5,43.5C 12.5,40.5 12.5,37.5 12.5,34.5C 9.55247,34.7771 6.71914,34.4438 4,33.5C 3.21852,28.0833 3.38519,22.7499 4.5,17.5 Z M 6.5,20.5 C 7.4959,20.4142 8.32924,20.7476 9,21.5C 9.49796,24.4816 9.66463,27.4816 9.5,30.5C 16.3205,30.6011 18.3205,33.9345 15.5,40.5C 14.52,37.9135 14.1866,35.2469 14.5,32.5C 11.8806,32.7683 9.3806,32.435 7,31.5C 6.09347,27.7403 5.92681,24.0736 6.5,20.5 Z"/></g>
<g><path style="opacity:0.805" fill="#FF7F50" d="M 38.5,17.5 C 40.7925,17.2436 42.9592,17.5769 45,18.5C 45.6667,23.5 45.6667,28.5 45,33.5C 42.2809,34.4438 39.4475,34.7771 36.5,34.5C 36.5,37.5 36.5,40.5 36.5,43.5C 34.5,43.5 32.5,43.5 30.5,43.5C 30.3342,38.8215 30.5008,34.1548 31,29.5C 33.0408,28.5769 35.2075,28.2436 37.5,28.5C 37.244,24.7307 37.5773,21.0641 38.5,17.5 Z M 40.5,20.5 C 41.9953,20.4148 42.9953,21.0815 43.5,22.5C 42.7565,25.443 42.2565,28.443 42,31.5C 39.6194,32.435 37.1194,32.7683 34.5,32.5C 34.8134,35.2469 34.48,37.9135 33.5,40.5C 30.6795,33.9345 32.6795,30.6011 39.5,30.5C 39.2529,27.0613 39.5863,23.728 40.5,20.5 Z"/></g>
<g><path style="opacity:0.81" fill="#FF7F50" d="M -0.5,22.5 C 1.21771,26.098 2.38438,30.098 3,34.5C 5.45599,35.5742 7.95599,36.5742 10.5,37.5C 6.30479,39.1888 2.63813,38.5221 -0.5,35.5C -0.5,31.1667 -0.5,26.8333 -0.5,22.5 Z"/></g>
<g><path style="opacity:0.81" fill="#FF7F50" d="M 49.5,22.5 C 49.5,26.8333 49.5,31.1667 49.5,35.5C 46.3619,38.5221 42.6952,39.1888 38.5,37.5C 41.044,36.5742 43.544,35.5742 46,34.5C 46.6156,30.098 47.7823,26.098 49.5,22.5 Z"/></g>
</svg>
