<?xml version="1.0" encoding="UTF-8"?>
<!DOCTYPE svg PUBLIC "-//W3C//DTD SVG 1.1//EN" "http://www.w3.org/Graphics/SVG/1.1/DTD/svg11.dtd">
<svg xmlns="http://www.w3.org/2000/svg" version="1.1" width="100px" height="100px" style="shape-rendering:geometricPrecision; text-rendering:geometricPrecision; image-rendering:optimizeQuality; fill-rule:evenodd; clip-rule:evenodd" xmlns:xlink="http://www.w3.org/1999/xlink">
<g><path style="opacity:1" fill="#000000" d="M 11.5,3.5 C 36.8333,3.5 62.1667,3.5 87.5,3.5C 87.5,34.1667 87.5,64.8333 87.5,95.5C 62.1667,95.5 36.8333,95.5 11.5,95.5C 11.5,64.8333 11.5,34.1667 11.5,3.5 Z M 15.5,7.5 C 38.1667,7.5 60.8333,7.5 83.5,7.5C 83.5,35.5 83.5,63.5 83.5,91.5C 60.8333,91.5 38.1667,91.5 15.5,91.5C 15.5,63.5 15.5,35.5 15.5,7.5 Z"/></g>
<g><path style="opacity:1" fill="#000000" d="M 25.5,21.5 C 41.5,21.5 57.5,21.5 73.5,21.5C 73.5,22.8333 73.5,24.1667 73.5,25.5C 57.5,25.5 41.5,25.5 25.5,25.5C 25.5,24.1667 25.5,22.8333 25.5,21.5 Z"/></g>
<g><path style="opacity:1" fill="#000000" d="M 25.5,49.5 C 34.8333,49.5 44.1667,49.5 53.5,49.5C 53.5,50.8333 53.5,52.1667 53.5,53.5C 44.1667,53.5 34.8333,53.5 25.5,53.5C 25.5,52.1667 25.5,50.8333 25.5,49.5 Z"/></g>
<g><path style="opacity:1" fill="#000000" d="M 63.5,49.5 C 66.8333,49.5 70.1667,49.5 73.5,49.5C 73.5,50.8333 73.5,52.1667 73.5,53.5C 70.1667,53.5 66.8333,53.5 63.5,53.5C 63.5,52.1667 63.5,50.8333 63.5,49.5 Z"/></g>
<g><path style="opacity:1" fill="#000000" d="M 25.5,61.5 C 34.8333,61.5 44.1667,61.5 53.5,61.5C 53.5,62.8333 53.5,64.1667 53.5,65.5C 44.1667,65.5 34.8333,65.5 25.5,65.5C 25.5,64.1667 25.5,62.8333 25.5,61.5 Z"/></g>
<g><path style="opacity:1" fill="#000000" d="M 63.5,61.5 C 66.8333,61.5 70.1667,61.5 73.5,61.5C 73.5,62.8333 73.5,64.1667 73.5,65.5C 70.1667,65.5 66.8333,65.5 63.5,65.5C 63.5,64.1667 63.5,62.8333 63.5,61.5 Z"/></g>
<g><path style="opacity:1" fill="#000000" d="M 25.5,73.5 C 34.8333,73.5 44.1667,73.5 53.5,73.5C 53.5,74.8333 53.5,76.1667 53.5,77.5C 44.1667,77.5 34.8333,77.5 25.5,77.5C 25.5,76.1667 25.5,74.8333 25.5,73.5 Z"/></g>
<g><path style="opacity:1" fill="#000000" d="M 63.5,73.5 C 66.8333,73.5 70.1667,73.5 73.5,73.5C 73.5,74.8333 73.5,76.1667 73.5,77.5C 70.1667,77.5 66.8333,77.5 63.5,77.5C 63.5,76.1667 63.5,74.8333 63.5,73.5 Z"/></g>
</svg>
