<?xml version="1.0" encoding="UTF-8"?>
<!DOCTYPE svg PUBLIC "-//W3C//DTD SVG 1.1//EN" "http://www.w3.org/Graphics/SVG/1.1/DTD/svg11.dtd">
<svg xmlns="http://www.w3.org/2000/svg" version="1.1" width="100px" height="100px" style="shape-rendering:geometricPrecision; text-rendering:geometricPrecision; image-rendering:optimizeQuality; fill-rule:evenodd; clip-rule:evenodd" xmlns:xlink="http://www.w3.org/1999/xlink">
<g><path style="opacity:0.861" fill="#000000" d="M 48.5,2.5 C 64.1081,7.86939 79.6081,13.5361 95,19.5C 95.1793,38.2103 95.6793,56.8769 96.5,75.5C 96.0233,76.4776 95.3567,77.3109 94.5,78C 79.674,84.33 64.674,90.1633 49.5,95.5C 34.326,90.1633 19.326,84.33 4.5,78C 3.64332,77.3109 2.97665,76.4776 2.5,75.5C 3.32072,56.8769 3.82072,38.2103 4,19.5C 18.9619,13.9261 33.7952,8.25946 48.5,2.5 Z M 44.5,9.5 C 45.5,9.5 46.5,9.5 47.5,9.5C 47.6666,25.5035 47.4999,41.5035 47,57.5C 33.9282,62.4681 20.7616,67.1348 7.5,71.5C 7.33341,55.4965 7.50007,39.4965 8,23.5C 20.3664,19.1043 32.5331,14.4376 44.5,9.5 Z M 51.5,9.5 C 64.7616,13.8652 77.9282,18.5319 91,23.5C 91.4999,39.4965 91.6666,55.4965 91.5,71.5C 88.4271,70.801 85.4271,69.801 82.5,68.5C 81.501,56.1847 81.1676,43.8513 81.5,31.5C 74.3346,28.8894 67.0013,26.8894 59.5,25.5C 59.6665,37.1714 59.4999,48.8381 59,60.5C 56.6667,59.5 54.3333,58.5 52,57.5C 51.5001,41.5035 51.3334,25.5035 51.5,9.5 Z M 33.5,31.5 C 34.8048,33.3972 35.4714,35.7305 35.5,38.5C 35.3333,40.8333 35.1667,43.1667 35,45.5C 30.674,47.6639 26.174,49.3305 21.5,50.5C 21.1734,45.7863 21.5067,41.1196 22.5,36.5C 26.3528,35.0044 30.0195,33.3377 33.5,31.5 Z M 63.5,31.5 C 68.0974,33.0319 72.764,34.3652 77.5,35.5C 77.8319,45.8548 77.4986,56.1881 76.5,66.5C 72.2746,64.7578 67.9413,63.4245 63.5,62.5C 63.5,52.1667 63.5,41.8333 63.5,31.5 Z M 47.5,62.5 C 60.5641,65.9101 73.2308,70.4101 85.5,76C 73.6667,80.8333 61.8333,85.6667 50,90.5C 37.8895,85.5282 25.7228,80.6949 13.5,76C 24.7801,71.1883 36.1134,66.6883 47.5,62.5 Z"/></g>
<g><path style="opacity:0.867" fill="#000000" d="M 34.5,25.5 C 36.1667,25.5 37.8333,25.5 39.5,25.5C 39.6664,33.5069 39.4997,41.5069 39,49.5C 32.6378,52.4553 26.1378,55.122 19.5,57.5C 18.914,57.2907 18.414,56.9574 18,56.5C 17.1684,48.4792 17.3351,40.4792 18.5,32.5C 23.9345,30.1427 29.2678,27.8094 34.5,25.5 Z M 33.5,31.5 C 30.0195,33.3377 26.3528,35.0044 22.5,36.5C 21.5067,41.1196 21.1734,45.7863 21.5,50.5C 26.174,49.3305 30.674,47.6639 35,45.5C 35.1667,43.1667 35.3333,40.8333 35.5,38.5C 35.4714,35.7305 34.8048,33.3972 33.5,31.5 Z"/></g>
</svg>
