<?xml version="1.0" encoding="UTF-8"?>
<!DOCTYPE svg PUBLIC "-//W3C//DTD SVG 1.1//EN" "http://www.w3.org/Graphics/SVG/1.1/DTD/svg11.dtd">
<svg xmlns="http://www.w3.org/2000/svg" version="1.1" width="512px" height="512px" style="shape-rendering:geometricPrecision; text-rendering:geometricPrecision; image-rendering:optimizeQuality; fill-rule:evenodd; clip-rule:evenodd" xmlns:xlink="http://www.w3.org/1999/xlink">
<g><path style="opacity:0.982" fill='blue' d="M 105.5,-0.5 C 109.167,-0.5 112.833,-0.5 116.5,-0.5C 121.234,1.73934 124.401,5.40601 126,10.5C 126.5,17.4921 126.666,24.4921 126.5,31.5C 148.167,31.5 169.833,31.5 191.5,31.5C 191.334,24.825 191.5,18.1583 192,11.5C 193.194,5.81949 196.36,1.81949 201.5,-0.5C 205.167,-0.5 208.833,-0.5 212.5,-0.5C 216.785,1.62186 219.952,4.9552 222,9.5C 222.5,16.8258 222.666,24.1591 222.5,31.5C 244.5,31.5 266.5,31.5 288.5,31.5C 288.334,24.1591 288.5,16.8258 289,9.5C 291.048,4.9552 294.215,1.62186 298.5,-0.5C 302.167,-0.5 305.833,-0.5 309.5,-0.5C 314.64,1.81949 317.806,5.81949 319,11.5C 319.5,18.1583 319.666,24.825 319.5,31.5C 341.167,31.5 362.833,31.5 384.5,31.5C 384.334,24.4921 384.5,17.4921 385,10.5C 386.599,5.40601 389.766,1.73934 394.5,-0.5C 398.167,-0.5 401.833,-0.5 405.5,-0.5C 410.234,1.73934 413.401,5.40601 415,10.5C 415.5,17.4921 415.666,24.4921 415.5,31.5C 432.503,31.3334 449.503,31.5001 466.5,32C 490.684,37.6849 505.684,52.5183 511.5,76.5C 511.5,206.5 511.5,336.5 511.5,466.5C 505.5,490.5 490.5,505.5 466.5,511.5C 325.833,511.5 185.167,511.5 44.5,511.5C 20.9464,505.613 5.94638,490.947 -0.5,467.5C -0.5,337.167 -0.5,206.833 -0.5,76.5C 5.31566,52.5183 20.3157,37.6849 44.5,32C 61.4967,31.5001 78.4967,31.3334 95.5,31.5C 95.3337,24.4921 95.5004,17.4921 96,10.5C 97.5992,5.40601 100.766,1.73934 105.5,-0.5 Z M 48.5,62.5 C 64.1667,62.5 79.8333,62.5 95.5,62.5C 95.3337,69.5079 95.5004,76.5079 96,83.5C 101.104,93.868 108.937,96.7014 119.5,92C 122.869,89.6351 125.036,86.4685 126,82.5C 126.5,75.8417 126.666,69.175 126.5,62.5C 148.167,62.5 169.833,62.5 191.5,62.5C 191.144,70.2382 191.644,77.9048 193,85.5C 201.962,96.9959 211.296,97.3292 221,86.5C 222.401,78.5852 222.901,70.5852 222.5,62.5C 244.5,62.5 266.5,62.5 288.5,62.5C 288.099,70.5852 288.599,78.5852 290,86.5C 299.704,97.3292 309.038,96.9959 318,85.5C 319.356,77.9048 319.856,70.2382 319.5,62.5C 341.167,62.5 362.833,62.5 384.5,62.5C 384.104,70.253 384.604,77.9196 386,85.5C 391.606,94.1107 399.106,96.2773 408.5,92C 411.433,89.7357 413.6,86.9024 415,83.5C 415.5,76.5079 415.666,69.5079 415.5,62.5C 431.17,62.3334 446.837,62.5001 462.5,63C 471.667,65.5 477.5,71.3333 480,80.5C 481.382,96.1275 481.882,111.794 481.5,127.5C 330.833,127.5 180.167,127.5 29.5,127.5C 29.1176,111.794 29.6176,96.1275 31,80.5C 33.6834,71.318 39.5167,65.318 48.5,62.5 Z M 29.5,158.5 C 180.167,158.5 330.833,158.5 481.5,158.5C 481.667,257.834 481.5,357.167 481,456.5C 479.5,471.333 471.333,479.5 456.5,481C 322.5,481.667 188.5,481.667 54.5,481C 39.6667,479.5 31.5,471.333 30,456.5C 29.5,357.167 29.3333,257.834 29.5,158.5 Z M 102.5,238.5 C 113.5,238.5 124.5,238.5 135.5,238.5C 135.5,249.833 135.5,261.167 135.5,272.5C 124.5,272.5 113.5,272.5 102.5,272.5C 102.5,261.167 102.5,249.833 102.5,238.5 Z M 375.5,238.5 C 386.5,238.5 397.5,238.5 408.5,238.5C 408.5,249.833 408.5,261.167 408.5,272.5C 397.5,272.5 386.5,272.5 375.5,272.5C 375.5,261.167 375.5,249.833 375.5,238.5 Z M 102.5,367.5 C 113.5,367.5 124.5,367.5 135.5,367.5C 135.5,378.5 135.5,389.5 135.5,400.5C 124.5,400.5 113.5,400.5 102.5,400.5C 102.5,389.5 102.5,378.5 102.5,367.5 Z M 238.5,367.5 C 249.833,367.5 261.167,367.5 272.5,367.5C 272.5,378.5 272.5,389.5 272.5,400.5C 261.167,400.5 249.833,400.5 238.5,400.5C 238.5,389.5 238.5,378.5 238.5,367.5 Z M 375.5,367.5 C 386.5,367.5 397.5,367.5 408.5,367.5C 408.5,378.5 408.5,389.5 408.5,400.5C 397.5,400.5 386.5,400.5 375.5,400.5C 375.5,389.5 375.5,378.5 375.5,367.5 Z"/></g>
<g><path style="opacity:0.965" fill='blue' d="M 84.5,207.5 C 107.502,207.333 130.502,207.5 153.5,208C 159.891,209.39 164.058,213.224 166,219.5C 166.667,243.5 166.667,267.5 166,291.5C 164.058,297.776 159.891,301.61 153.5,303C 130.5,303.667 107.5,303.667 84.5,303C 78.5315,301.702 74.3648,298.202 72,292.5C 71.3333,267.833 71.3333,243.167 72,218.5C 74.5373,212.785 78.7039,209.118 84.5,207.5 Z M 102.5,238.5 C 102.5,249.833 102.5,261.167 102.5,272.5C 113.5,272.5 124.5,272.5 135.5,272.5C 135.5,261.167 135.5,249.833 135.5,238.5C 124.5,238.5 113.5,238.5 102.5,238.5 Z"/></g>
<g><path style="opacity:0.965" fill='blue' d="M 357.5,207.5 C 380.502,207.333 403.502,207.5 426.5,208C 432.469,209.298 436.635,212.798 439,218.5C 439.667,243.167 439.667,267.833 439,292.5C 436.635,298.202 432.469,301.702 426.5,303C 403.5,303.667 380.5,303.667 357.5,303C 351.109,301.61 346.942,297.776 345,291.5C 344.333,267.5 344.333,243.5 345,219.5C 347.12,213.211 351.286,209.211 357.5,207.5 Z M 375.5,238.5 C 375.5,249.833 375.5,261.167 375.5,272.5C 386.5,272.5 397.5,272.5 408.5,272.5C 408.5,261.167 408.5,249.833 408.5,238.5C 397.5,238.5 386.5,238.5 375.5,238.5 Z"/></g>
<g><path style="opacity:0.952" fill='blue' d="M 284.5,217.5 C 296.273,215.953 303.273,220.953 305.5,232.5C 304.894,236.028 303.728,239.361 302,242.5C 285.833,258.667 269.667,274.833 253.5,291C 247.981,293.835 242.314,294.169 236.5,292C 227.03,283.531 217.863,274.697 209,265.5C 203.958,256.38 205.458,248.546 213.5,242C 218.047,240.455 222.713,240.121 227.5,241C 233.608,245.271 239.274,250.104 244.5,255.5C 257.578,242.419 270.911,229.752 284.5,217.5 Z"/></g>
<g><path style="opacity:0.969" fill='blue' d="M 82.5,336.5 C 106.836,336.333 131.169,336.5 155.5,337C 161,338.5 164.5,342 166,347.5C 166.667,371.833 166.667,396.167 166,420.5C 164.5,426 161,429.5 155.5,431C 131.167,431.667 106.833,431.667 82.5,431C 77,429.5 73.5,426 72,420.5C 71.3333,396.167 71.3333,371.833 72,347.5C 73.6844,341.984 77.1844,338.318 82.5,336.5 Z M 102.5,367.5 C 102.5,378.5 102.5,389.5 102.5,400.5C 113.5,400.5 124.5,400.5 135.5,400.5C 135.5,389.5 135.5,378.5 135.5,367.5C 124.5,367.5 113.5,367.5 102.5,367.5 Z"/></g>
<g><path style="opacity:0.966" fill='blue' d="M 219.5,336.5 C 243.502,336.333 267.502,336.5 291.5,337C 297.776,338.942 301.61,343.109 303,349.5C 303.667,372.5 303.667,395.5 303,418.5C 301.702,424.469 298.202,428.635 292.5,431C 267.833,431.667 243.167,431.667 218.5,431C 212.798,428.635 209.298,424.469 208,418.5C 207.333,395.5 207.333,372.5 208,349.5C 209.58,343.091 213.414,338.758 219.5,336.5 Z M 238.5,367.5 C 238.5,378.5 238.5,389.5 238.5,400.5C 249.833,400.5 261.167,400.5 272.5,400.5C 272.5,389.5 272.5,378.5 272.5,367.5C 261.167,367.5 249.833,367.5 238.5,367.5 Z"/></g>
<g><path style="opacity:0.969" fill='blue' d="M 355.5,336.5 C 379.836,336.333 404.169,336.5 428.5,337C 434,338.5 437.5,342 439,347.5C 439.667,371.833 439.667,396.167 439,420.5C 437.5,426 434,429.5 428.5,431C 404.167,431.667 379.833,431.667 355.5,431C 350,429.5 346.5,426 345,420.5C 344.333,396.167 344.333,371.833 345,347.5C 346.684,341.984 350.184,338.318 355.5,336.5 Z M 375.5,367.5 C 375.5,378.5 375.5,389.5 375.5,400.5C 386.5,400.5 397.5,400.5 408.5,400.5C 408.5,389.5 408.5,378.5 408.5,367.5C 397.5,367.5 386.5,367.5 375.5,367.5 Z"/></g>
</svg>
